<?xml version="1.0" encoding="utf-8"?>
<!-- Generator: Adobe Illustrator 24.1.2, SVG Export Plug-In . SVG Version: 6.00 Build 0)  -->
<svg version="1.1" id="レイヤー_1" xmlns="http://www.w3.org/2000/svg" xmlns:xlink="http://www.w3.org/1999/xlink" x="0px"
	 y="0px" viewBox="0 0 595.3 841.9" style="enable-background:new 0 0 595.3 841.9;" xml:space="preserve">
<style type="text/css">
	.st0{fill:#7E318E;}
	.st1{fill:none;stroke:#7E318E;stroke-miterlimit:10;}
</style>
<circle class="st0" cx="337.6" cy="424.6" r="7.3"/>
<circle class="st0" cx="330.3" cy="492.4" r="7.3"/>
<path class="st0" d="M315.9,401.6v-0.5h0.9c12.9-6.7,28.2-10.7,44.6-10.7c12.3,0,24,2.2,34.5,6.1c-2.9-3-6.4-5.3-10.3-6.8
	c-6.3-2.4-15.5-3.6-27.5-3.6h-60v28.5C303.1,409.6,309.2,405.2,315.9,401.6z"/>
<path class="st0" d="M315.9,461.4h20.8c4.6,0,7.9,0.2,10,0.6c2.8,0.7,5.5,1.9,8.2,3.6c2.7,1.7,5.7,4.7,9.1,9
	c3.4,4.3,7.7,10.5,12.9,18.7l17.9,28.2h22.5l-23.5-36.8c-4.7-7.2-9.6-13.2-14.9-18c-2.5-2.2-6.1-4.5-10.8-6.7
	c13-1.8,22.6-6,28.8-12.6c6.2-6.6,9.3-14.7,9.3-24.3c0-6.3-1.3-12.1-4-17.4c-3.1-0.3-6.3-0.5-9.5-0.5c-4.6,0-9.1,0.3-13.5,0.9
	c0.5,0.4,1.1,0.8,1.6,1.2c4.6,4.1,7,9.4,7,15.8c0,4.4-1.2,8.4-3.6,12.1c-2.4,3.7-5.9,6.4-10.5,8.1c-4.6,1.7-11,2.5-19.2,2.5h-37.6"
	/>
<polyline class="st1" points="337.6,424.6 296,451.7 325.4,492.4 "/>
<line class="st1" x1="296" y1="451.7" x2="260" y2="523.9"/>
<circle class="st0" cx="296" cy="452.4" r="11"/>
<circle class="st0" cx="263.3" cy="521.1" r="5.4"/>
</svg>
